<svg width="22" height="23" viewBox="0 0 22 23" fill="none" xmlns="http://www.w3.org/2000/svg">
<path d="M15.9719 14.7301H14.971L14.6163 14.3882C15.408 13.4689 15.9867 12.386 16.3109 11.2171C16.635 10.0482 16.6966 8.82217 16.4913 7.62668C15.8959 4.10665 12.9566 1.29569 9.40913 0.865182C8.16198 0.707497 6.89525 0.837036 5.7059 1.24389C4.51654 1.65074 3.43607 2.32412 2.54717 3.2125C1.65826 4.10088 0.98449 5.18072 0.5774 6.36938C0.17031 7.55804 0.0406942 8.82402 0.198472 10.0704C0.629232 13.6158 3.44184 16.5534 6.96394 17.1485C8.16012 17.3537 9.3869 17.2921 10.5565 16.9681C11.7261 16.6442 12.8096 16.0658 13.7294 15.2745L14.0715 15.6291V16.6294L19.456 22.0107C19.9754 22.5298 20.8243 22.5298 21.3437 22.0107C21.8632 21.4916 21.8632 20.6432 21.3437 20.1241L15.9719 14.7301ZM8.37024 14.7301C5.21556 14.7301 2.66901 12.185 2.66901 9.03216C2.66901 5.87933 5.21556 3.33427 8.37024 3.33427C11.5249 3.33427 14.0715 5.87933 14.0715 9.03216C14.0715 12.185 11.5249 14.7301 8.37024 14.7301Z" fill="#3D348B"/>
</svg>
